<svg width="196" height="42" viewBox="0 0 196 42" fill="none" xmlns="http://www.w3.org/2000/svg">
<rect width="196" height="42" rx="8" fill="#FF9549"/>
<path d="M42.4998 14.3333V18.5M42.4998 18.5L46.6664 18.5M42.4998 18.5L47.4997 13.5M38.5223 22.5526C37.521 21.5512 36.7303 20.419 36.1503 19.211C36.1004 19.1071 36.0755 19.0552 36.0563 18.9894C35.9882 18.7558 36.0371 18.4689 36.1788 18.2711C36.2187 18.2154 36.2663 18.1677 36.3616 18.0725C36.6529 17.7811 36.7986 17.6355 36.8938 17.489C37.253 16.9366 37.253 16.2244 36.8938 15.672C36.7986 15.5255 36.6529 15.3799 36.3616 15.0885L36.1992 14.9261C35.7563 14.4833 35.5349 14.2618 35.2971 14.1416C34.8241 13.9023 34.2655 13.9023 33.7926 14.1416C33.5547 14.2618 33.3333 14.4833 32.8904 14.9261L32.7591 15.0575C32.3177 15.4989 32.0971 15.7195 31.9285 16.0196C31.7415 16.3525 31.607 16.8696 31.6082 17.2514C31.6092 17.5955 31.6759 17.8307 31.8094 18.3011C32.5269 20.8289 33.8806 23.2142 35.8706 25.2042C37.8606 27.1942 40.2459 28.5479 42.7737 29.2654C43.2441 29.3989 43.4793 29.4657 43.8234 29.4667C44.2053 29.4678 44.7224 29.3333 45.0553 29.1463C45.3553 28.9778 45.576 28.7571 46.0173 28.3158L46.1487 28.1844C46.5916 27.7415 46.813 27.5201 46.9333 27.2823C47.1725 26.8093 47.1725 26.2508 46.9333 25.7778C46.813 25.54 46.5916 25.3185 46.1487 24.8757L45.9863 24.7133C45.695 24.4219 45.5493 24.2763 45.4028 24.181C44.8504 23.8219 44.1383 23.8219 43.5858 24.181C43.4394 24.2763 43.2937 24.4219 43.0024 24.7133C42.9071 24.8085 42.8595 24.8562 42.8038 24.896C42.6059 25.0377 42.319 25.0866 42.0854 25.0185C42.0197 24.9994 41.9677 24.9744 41.8638 24.9245C40.6558 24.3445 39.5236 23.5539 38.5223 22.5526Z" stroke="#181818" stroke-width="1.5" stroke-linecap="round" stroke-linejoin="round"/>
<path d="M65.544 20.362C66.0947 20.5767 66.5147 20.8893 66.804 21.3C67.1027 21.7107 67.252 22.21 67.252 22.798C67.252 23.7033 66.93 24.4127 66.286 24.926C65.642 25.43 64.7367 25.682 63.57 25.682C63.0567 25.682 62.5433 25.6307 62.03 25.528C61.526 25.4347 61.0687 25.304 60.658 25.136V23.596C61.6753 23.988 62.618 24.184 63.486 24.184C64.8673 24.184 65.558 23.6753 65.558 22.658C65.558 21.6593 64.8393 21.16 63.402 21.16H62.002V19.76H63.416C64.7413 19.76 65.404 19.298 65.404 18.374C65.404 17.4687 64.7833 17.016 63.542 17.016C62.7113 17.016 61.8713 17.1793 61.022 17.506V15.98C61.442 15.8307 61.8947 15.7187 62.38 15.644C62.8653 15.56 63.3227 15.518 63.752 15.518C64.7973 15.518 65.6047 15.7513 66.174 16.218C66.7527 16.6753 67.042 17.3147 67.042 18.136C67.042 18.668 66.9113 19.1207 66.65 19.494C66.398 19.8673 66.0293 20.1567 65.544 20.362ZM71.4037 18.024C73.3543 18.024 74.3297 18.9713 74.3297 20.866V25.5H72.9297L72.9437 24.478H72.8457C72.323 25.2807 71.5903 25.682 70.6477 25.682C69.9663 25.682 69.4203 25.486 69.0097 25.094C68.599 24.6927 68.3937 24.1607 68.3937 23.498C68.3937 22.7887 68.655 22.2193 69.1777 21.79C69.7097 21.3607 70.5123 21.09 71.5857 20.978L72.7897 20.852C72.771 20.3387 72.6357 19.9607 72.3837 19.718C72.141 19.466 71.763 19.34 71.2497 19.34C70.8857 19.34 70.5123 19.3867 70.1297 19.48C69.7563 19.564 69.411 19.69 69.0937 19.858V18.472C69.3737 18.3507 69.719 18.248 70.1297 18.164C70.5403 18.0707 70.965 18.024 71.4037 18.024ZM71.0957 24.394C71.5623 24.394 71.959 24.2213 72.2857 23.876C72.6217 23.5213 72.7897 23.0033 72.7897 22.322V21.958L71.6417 22.07C70.531 22.1913 69.9757 22.6113 69.9757 23.33C69.9757 23.6567 70.0737 23.918 70.2697 24.114C70.475 24.3007 70.7503 24.394 71.0957 24.394ZM82.3431 18.192L79.9771 21.65L82.6931 25.5H80.9291L78.8011 22.392H77.6251L77.6811 23.414V25.5H76.1411V18.192H77.6811V20.194L77.6251 21.104H78.7871L80.6911 18.192H82.3431ZM86.2513 18.024C88.202 18.024 89.1773 18.9713 89.1773 20.866V25.5H87.7773L87.7913 24.478H87.6933C87.1706 25.2807 86.438 25.682 85.4953 25.682C84.814 25.682 84.268 25.486 83.8573 25.094C83.4466 24.6927 83.2413 24.1607 83.2413 23.498C83.2413 22.7887 83.5026 22.2193 84.0253 21.79C84.5573 21.3607 85.36 21.09 86.4333 20.978L87.6373 20.852C87.6186 20.3387 87.4833 19.9607 87.2313 19.718C86.9886 19.466 86.6106 19.34 86.0973 19.34C85.7333 19.34 85.36 19.3867 84.9773 19.48C84.604 19.564 84.2586 19.69 83.9413 19.858V18.472C84.2213 18.3507 84.5666 18.248 84.9773 18.164C85.388 18.0707 85.8126 18.024 86.2513 18.024ZM85.9433 24.394C86.41 24.394 86.8066 24.2213 87.1333 23.876C87.4693 23.5213 87.6373 23.0033 87.6373 22.322V21.958L86.4893 22.07C85.3786 22.1913 84.8233 22.6113 84.8233 23.33C84.8233 23.6567 84.9213 23.918 85.1173 24.114C85.3226 24.3007 85.598 24.394 85.9433 24.394ZM94.5341 21.706C95.4207 21.9953 95.8641 22.588 95.8641 23.484C95.8641 24.2027 95.6027 24.7487 95.0801 25.122C94.5574 25.4953 93.8061 25.682 92.8261 25.682C92.0421 25.682 91.2441 25.5373 90.4321 25.248V23.904C91.3374 24.2307 92.1121 24.394 92.7561 24.394C93.2787 24.394 93.6707 24.31 93.9321 24.142C94.1934 23.9647 94.3241 23.6987 94.3241 23.344C94.3241 23.008 94.2027 22.7607 93.9601 22.602C93.7174 22.434 93.3394 22.35 92.8261 22.35H91.5521V21.146H92.8541C93.3114 21.146 93.6521 21.0713 93.8761 20.922C94.1001 20.7727 94.2121 20.544 94.2121 20.236C94.2121 19.9187 94.1001 19.6853 93.8761 19.536C93.6521 19.3867 93.3114 19.312 92.8541 19.312C92.2567 19.312 91.5521 19.452 90.7401 19.732V18.388C91.5614 18.1453 92.2941 18.024 92.9381 18.024C93.8341 18.024 94.5247 18.2013 95.0101 18.556C95.4954 18.9013 95.7381 19.4007 95.7381 20.054C95.7381 20.8753 95.3367 21.426 94.5341 21.706ZM99.9095 18.024C101.86 18.024 102.836 18.9713 102.836 20.866V25.5H101.436L101.45 24.478H101.352C100.829 25.2807 100.096 25.682 99.1535 25.682C98.4722 25.682 97.9262 25.486 97.5155 25.094C97.1048 24.6927 96.8995 24.1607 96.8995 23.498C96.8995 22.7887 97.1608 22.2193 97.6835 21.79C98.2155 21.3607 99.0182 21.09 100.092 20.978L101.296 20.852C101.277 20.3387 101.142 19.9607 100.89 19.718C100.647 19.466 100.269 19.34 99.7555 19.34C99.3915 19.34 99.0182 19.3867 98.6355 19.48C98.2622 19.564 97.9168 19.69 97.5995 19.858V18.472C97.8795 18.3507 98.2248 18.248 98.6355 18.164C99.0462 18.0707 99.4708 18.024 99.9095 18.024ZM99.6015 24.394C100.068 24.394 100.465 24.2213 100.792 23.876C101.128 23.5213 101.296 23.0033 101.296 22.322V21.958L100.148 22.07C99.0368 22.1913 98.4815 22.6113 98.4815 23.33C98.4815 23.6567 98.5795 23.918 98.7755 24.114C98.9808 24.3007 99.2562 24.394 99.6015 24.394ZM107.59 25.5H106.05V19.578H103.824V18.192H109.816V19.578H107.59V25.5ZM113.888 20.516C115.96 20.516 116.996 21.3467 116.996 23.008C116.996 24.6693 115.96 25.5 113.888 25.5H111.004V18.192H112.544V20.516H113.888ZM113.86 24.254C114.402 24.254 114.803 24.1513 115.064 23.946C115.326 23.7407 115.456 23.428 115.456 23.008C115.456 22.588 115.326 22.2753 115.064 22.07C114.803 21.8647 114.402 21.762 113.86 21.762H112.544V24.254H113.86ZM125.118 21.706C126.005 21.9953 126.448 22.588 126.448 23.484C126.448 24.2027 126.187 24.7487 125.664 25.122C125.141 25.4953 124.39 25.682 123.41 25.682C122.626 25.682 121.828 25.5373 121.016 25.248V23.904C121.921 24.2307 122.696 24.394 123.34 24.394C123.863 24.394 124.255 24.31 124.516 24.142C124.777 23.9647 124.908 23.6987 124.908 23.344C124.908 23.008 124.787 22.7607 124.544 22.602C124.301 22.434 123.923 22.35 123.41 22.35H122.136V21.146H123.438C123.895 21.146 124.236 21.0713 124.46 20.922C124.684 20.7727 124.796 20.544 124.796 20.236C124.796 19.9187 124.684 19.6853 124.46 19.536C124.236 19.3867 123.895 19.312 123.438 19.312C122.841 19.312 122.136 19.452 121.324 19.732V18.388C122.145 18.1453 122.878 18.024 123.522 18.024C124.418 18.024 125.109 18.2013 125.594 18.556C126.079 18.9013 126.322 19.4007 126.322 20.054C126.322 20.8753 125.921 21.426 125.118 21.706ZM132.688 21.664C133.566 21.9627 134.004 22.5693 134.004 23.484C134.004 24.1373 133.78 24.6367 133.332 24.982C132.894 25.3273 132.245 25.5 131.386 25.5H128.012V18.192H131.078C131.918 18.192 132.558 18.3553 132.996 18.682C133.444 19.0087 133.668 19.4847 133.668 20.11C133.668 20.8473 133.342 21.3653 132.688 21.664ZM129.538 19.424V21.216H130.952C131.764 21.216 132.17 20.9173 132.17 20.32C132.17 19.7227 131.764 19.424 130.952 19.424H129.538ZM131.246 24.268C132.077 24.268 132.492 23.946 132.492 23.302C132.492 22.658 132.077 22.336 131.246 22.336H129.538V24.268H131.246ZM138.486 25.682C137.786 25.682 137.18 25.528 136.666 25.22C136.153 24.9027 135.756 24.4547 135.476 23.876C135.196 23.2973 135.056 22.6207 135.056 21.846C135.056 21.0713 135.196 20.3993 135.476 19.83C135.756 19.2513 136.153 18.808 136.666 18.5C137.18 18.1827 137.786 18.024 138.486 18.024C139.186 18.024 139.793 18.1827 140.306 18.5C140.82 18.808 141.216 19.2513 141.496 19.83C141.776 20.3993 141.916 21.0713 141.916 21.846C141.916 22.6207 141.776 23.2973 141.496 23.876C141.216 24.4547 140.82 24.9027 140.306 25.22C139.793 25.528 139.186 25.682 138.486 25.682ZM138.486 24.394C139.056 24.394 139.494 24.1793 139.802 23.75C140.12 23.3113 140.278 22.6767 140.278 21.846C140.278 21.0247 140.12 20.3947 139.802 19.956C139.494 19.5173 139.056 19.298 138.486 19.298C137.917 19.298 137.474 19.5173 137.156 19.956C136.848 20.3947 136.694 21.0247 136.694 21.846C136.694 22.6767 136.848 23.3113 137.156 23.75C137.474 24.1793 137.917 24.394 138.486 24.394ZM147.902 21.09V18.192H149.442V25.5H147.902V22.378H144.878V25.5H143.338V18.192H144.878V21.09H147.902ZM154.305 25.682C153.605 25.682 152.998 25.528 152.485 25.22C151.971 24.9027 151.575 24.4547 151.295 23.876C151.015 23.2973 150.875 22.6207 150.875 21.846C150.875 21.0713 151.015 20.3993 151.295 19.83C151.575 19.2513 151.971 18.808 152.485 18.5C152.998 18.1827 153.605 18.024 154.305 18.024C155.005 18.024 155.611 18.1827 156.125 18.5C156.638 18.808 157.035 19.2513 157.315 19.83C157.595 20.3993 157.735 21.0713 157.735 21.846C157.735 22.6207 157.595 23.2973 157.315 23.876C157.035 24.4547 156.638 24.9027 156.125 25.22C155.611 25.528 155.005 25.682 154.305 25.682ZM154.305 24.394C154.874 24.394 155.313 24.1793 155.621 23.75C155.938 23.3113 156.097 22.6767 156.097 21.846C156.097 21.0247 155.938 20.3947 155.621 19.956C155.313 19.5173 154.874 19.298 154.305 19.298C153.735 19.298 153.292 19.5173 152.975 19.956C152.667 20.3947 152.513 21.0247 152.513 21.846C152.513 22.6767 152.667 23.3113 152.975 23.75C153.292 24.1793 153.735 24.394 154.305 24.394ZM165.359 18.192L162.993 21.65L165.709 25.5H163.945L161.817 22.392H160.641L160.697 23.414V25.5H159.157V18.192H160.697V20.194L160.641 21.104H161.803L163.707 18.192H165.359Z" fill="#181818"/>
</svg>
